<svg width="100" height="100" viewBox="0 0 100 100" fill="none" xmlns="http://www.w3.org/2000/svg">
<circle cx="1" cy="1" r="1" fill="#F0F0F0"/>
<circle cx="5" cy="1" r="1" fill="#F0F0F0"/>
<circle cx="9" cy="1" r="1" fill="#F0F0F0"/>
<circle cx="13" cy="1" r="1" fill="#F0F0F0"/>
<circle cx="17" cy="1" r="1" fill="#F0F0F0"/>
<circle cx="21" cy="1" r="1" fill="#F0F0F0"/>
<circle cx="25" cy="1" r="1" fill="#F0F0F0"/>
<circle cx="29" cy="1" r="1" fill="#F0F0F0"/>
<circle cx="33" cy="1" r="1" fill="#F0F0F0"/>
<circle cx="37" cy="1" r="1" fill="#F0F0F0"/>
<circle cx="41" cy="1" r="1" fill="#F0F0F0"/>
<circle cx="45" cy="1" r="1" fill="#F0F0F0"/>
<circle cx="49" cy="1" r="1" fill="#F0F0F0"/>
<circle cx="53" cy="1" r="1" fill="#F0F0F0"/>
<circle cx="57" cy="1" r="1" fill="#F0F0F0"/>
<circle cx="61" cy="1" r="1" fill="#F0F0F0"/>
<circle cx="65" cy="1" r="1" fill="#F0F0F0"/>
<circle cx="69" cy="1" r="1" fill="#F0F0F0"/>
<circle cx="73" cy="1" r="1" fill="#F0F0F0"/>
<circle cx="77" cy="1" r="1" fill="#F0F0F0"/>
<circle cx="81" cy="1" r="1" fill="#F0F0F0"/>
<circle cx="85" cy="1" r="1" fill="#F0F0F0"/>
<circle cx="89" cy="1" r="1" fill="#F0F0F0"/>
<circle cx="93" cy="1" r="1" fill="#F0F0F0"/>
<circle cx="97" cy="1" r="1" fill="#F0F0F0"/>
<circle cx="1" cy="5" r="1" fill="#F0F0F0"/>
<circle cx="5" cy="5" r="1" fill="#F0F0F0"/>
<circle cx="9" cy="5" r="1" fill="#F0F0F0"/>
<circle cx="13" cy="5" r="1" fill="#F0F0F0"/>
<circle cx="17" cy="5" r="1" fill="#F0F0F0"/>
<circle cx="21" cy="5" r="1" fill="#F0F0F0"/>
<circle cx="25" cy="5" r="1" fill="#F0F0F0"/>
<circle cx="29" cy="5" r="1" fill="#F0F0F0"/>
<circle cx="33" cy="5" r="1" fill="#F0F0F0"/>
<circle cx="37" cy="5" r="1" fill="#F0F0F0"/>
<circle cx="41" cy="5" r="1" fill="#F0F0F0"/>
<circle cx="45" cy="5" r="1" fill="#F0F0F0"/>
<circle cx="49" cy="5" r="1" fill="#F0F0F0"/>
<circle cx="53" cy="5" r="1" fill="#F0F0F0"/>
<circle cx="57" cy="5" r="1" fill="#F0F0F0"/>
<circle cx="61" cy="5" r="1" fill="#F0F0F0"/>
<circle cx="65" cy="5" r="1" fill="#F0F0F0"/>
<circle cx="69" cy="5" r="1" fill="#F0F0F0"/>
<circle cx="73" cy="5" r="1" fill="#F0F0F0"/>
<circle cx="77" cy="5" r="1" fill="#F0F0F0"/>
<circle cx="81" cy="5" r="1" fill="#F0F0F0"/>
<circle cx="85" cy="5" r="1" fill="#F0F0F0"/>
<circle cx="89" cy="5" r="1" fill="#F0F0F0"/>
<circle cx="93" cy="5" r="1" fill="#F0F0F0"/>
<circle cx="97" cy="5" r="1" fill="#F0F0F0"/>
<circle cx="1" cy="9" r="1" fill="#F0F0F0"/>
<circle cx="5" cy="9" r="1" fill="#F0F0F0"/>
<circle cx="9" cy="9" r="1" fill="#F0F0F0"/>
<circle cx="13" cy="9" r="1" fill="#F0F0F0"/>
<circle cx="17" cy="9" r="1" fill="#F0F0F0"/>
<circle cx="21" cy="9" r="1" fill="#F0F0F0"/>
<circle cx="25" cy="9" r="1" fill="#F0F0F0"/>
<circle cx="29" cy="9" r="1" fill="#F0F0F0"/>
<circle cx="33" cy="9" r="1" fill="#F0F0F0"/>
<circle cx="37" cy="9" r="1" fill="#F0F0F0"/>
<circle cx="41" cy="9" r="1" fill="#F0F0F0"/>
<circle cx="45" cy="9" r="1" fill="#F0F0F0"/>
<circle cx="49" cy="9" r="1" fill="#F0F0F0"/>
<circle cx="53" cy="9" r="1" fill="#F0F0F0"/>
<circle cx="57" cy="9" r="1" fill="#F0F0F0"/>
<circle cx="61" cy="9" r="1" fill="#F0F0F0"/>
<circle cx="65" cy="9" r="1" fill="#F0F0F0"/>
<circle cx="69" cy="9" r="1" fill="#F0F0F0"/>
<circle cx="73" cy="9" r="1" fill="#F0F0F0"/>
<circle cx="77" cy="9" r="1" fill="#F0F0F0"/>
<circle cx="81" cy="9" r="1" fill="#F0F0F0"/>
<circle cx="85" cy="9" r="1" fill="#F0F0F0"/>
<circle cx="89" cy="9" r="1" fill="#F0F0F0"/>
<circle cx="93" cy="9" r="1" fill="#F0F0F0"/>
<circle cx="97" cy="9" r="1" fill="#F0F0F0"/>
<circle cx="1" cy="13" r="1" fill="#F0F0F0"/>
<circle cx="5" cy="13" r="1" fill="#F0F0F0"/>
<circle cx="9" cy="13" r="1" fill="#F0F0F0"/>
<circle cx="13" cy="13" r="1" fill="#F0F0F0"/>
<circle cx="17" cy="13" r="1" fill="#F0F0F0"/>
<circle cx="21" cy="13" r="1" fill="#F0F0F0"/>
<circle cx="25" cy="13" r="1" fill="#F0F0F0"/>
<circle cx="29" cy="13" r="1" fill="#F0F0F0"/>
<circle cx="33" cy="13" r="1" fill="#F0F0F0"/>
<circle cx="37" cy="13" r="1" fill="#F0F0F0"/>
<circle cx="41" cy="13" r="1" fill="#F0F0F0"/>
<circle cx="45" cy="13" r="1" fill="#F0F0F0"/>
<circle cx="49" cy="13" r="1" fill="#F0F0F0"/>
<circle cx="53" cy="13" r="1" fill="#F0F0F0"/>
<circle cx="57" cy="13" r="1" fill="#F0F0F0"/>
<circle cx="61" cy="13" r="1" fill="#F0F0F0"/>
<circle cx="65" cy="13" r="1" fill="#F0F0F0"/>
<circle cx="69" cy="13" r="1" fill="#F0F0F0"/>
<circle cx="73" cy="13" r="1" fill="#F0F0F0"/>
<circle cx="77" cy="13" r="1" fill="#F0F0F0"/>
<circle cx="81" cy="13" r="1" fill="#F0F0F0"/>
<circle cx="85" cy="13" r="1" fill="#F0F0F0"/>
<circle cx="89" cy="13" r="1" fill="#F0F0F0"/>
<circle cx="93" cy="13" r="1" fill="#F0F0F0"/>
<circle cx="97" cy="13" r="1" fill="#F0F0F0"/>
<circle cx="1" cy="17" r="1" fill="#F0F0F0"/>
<circle cx="5" cy="17" r="1" fill="#F0F0F0"/>
<circle cx="9" cy="17" r="1" fill="#F0F0F0"/>
<circle cx="13" cy="17" r="1" fill="#F0F0F0"/>
<circle cx="17" cy="17" r="1" fill="#F0F0F0"/>
<circle cx="21" cy="17" r="1" fill="#F0F0F0"/>
<circle cx="25" cy="17" r="1" fill="#F0F0F0"/>
<circle cx="29" cy="17" r="1" fill="#F0F0F0"/>
<circle cx="33" cy="17" r="1" fill="#F0F0F0"/>
<circle cx="37" cy="17" r="1" fill="#F0F0F0"/>
<circle cx="41" cy="17" r="1" fill="#F0F0F0"/>
<circle cx="45" cy="17" r="1" fill="#F0F0F0"/>
<circle cx="49" cy="17" r="1" fill="#F0F0F0"/>
<circle cx="53" cy="17" r="1" fill="#F0F0F0"/>
<circle cx="57" cy="17" r="1" fill="#F0F0F0"/>
<circle cx="61" cy="17" r="1" fill="#F0F0F0"/>
<circle cx="65" cy="17" r="1" fill="#F0F0F0"/>
<circle cx="69" cy="17" r="1" fill="#F0F0F0"/>
<circle cx="73" cy="17" r="1" fill="#F0F0F0"/>
<circle cx="77" cy="17" r="1" fill="#F0F0F0"/>
<circle cx="81" cy="17" r="1" fill="#F0F0F0"/>
<circle cx="85" cy="17" r="1" fill="#F0F0F0"/>
<circle cx="89" cy="17" r="1" fill="#F0F0F0"/>
<circle cx="93" cy="17" r="1" fill="#F0F0F0"/>
<circle cx="97" cy="17" r="1" fill="#F0F0F0"/>
<circle cx="1" cy="21" r="1" fill="#F0F0F0"/>
<circle cx="5" cy="21" r="1" fill="#F0F0F0"/>
<circle cx="9" cy="21" r="1" fill="#F0F0F0"/>
<circle cx="13" cy="21" r="1" fill="#F0F0F0"/>
<circle cx="17" cy="21" r="1" fill="#F0F0F0"/>
<circle cx="21" cy="21" r="1" fill="#F0F0F0"/>
<circle cx="25" cy="21" r="1" fill="#F0F0F0"/>
<circle cx="29" cy="21" r="1" fill="#F0F0F0"/>
<circle cx="33" cy="21" r="1" fill="#F0F0F0"/>
<circle cx="37" cy="21" r="1" fill="#F0F0F0"/>
<circle cx="41" cy="21" r="1" fill="#F0F0F0"/>
<circle cx="45" cy="21" r="1" fill="#F0F0F0"/>
<circle cx="49" cy="21" r="1" fill="#F0F0F0"/>
<circle cx="53" cy="21" r="1" fill="#F0F0F0"/>
<circle cx="57" cy="21" r="1" fill="#F0F0F0"/>
<circle cx="61" cy="21" r="1" fill="#F0F0F0"/>
<circle cx="65" cy="21" r="1" fill="#F0F0F0"/>
<circle cx="69" cy="21" r="1" fill="#F0F0F0"/>
<circle cx="73" cy="21" r="1" fill="#F0F0F0"/>
<circle cx="77" cy="21" r="1" fill="#F0F0F0"/>
<circle cx="81" cy="21" r="1" fill="#F0F0F0"/>
<circle cx="85" cy="21" r="1" fill="#F0F0F0"/>
<circle cx="89" cy="21" r="1" fill="#F0F0F0"/>
<circle cx="93" cy="21" r="1" fill="#F0F0F0"/>
<circle cx="97" cy="21" r="1" fill="#F0F0F0"/>
<circle cx="1" cy="25" r="1" fill="#F0F0F0"/>
<circle cx="5" cy="25" r="1" fill="#F0F0F0"/>
<circle cx="9" cy="25" r="1" fill="#F0F0F0"/>
<circle cx="13" cy="25" r="1" fill="#F0F0F0"/>
<circle cx="17" cy="25" r="1" fill="#F0F0F0"/>
<circle cx="21" cy="25" r="1" fill="#F0F0F0"/>
<circle cx="25" cy="25" r="1" fill="#F0F0F0"/>
<circle cx="29" cy="25" r="1" fill="#F0F0F0"/>
<circle cx="33" cy="25" r="1" fill="#F0F0F0"/>
<circle cx="37" cy="25" r="1" fill="#F0F0F0"/>
<circle cx="41" cy="25" r="1" fill="#F0F0F0"/>
<circle cx="45" cy="25" r="1" fill="#F0F0F0"/>
<circle cx="49" cy="25" r="1" fill="#F0F0F0"/>
<circle cx="53" cy="25" r="1" fill="#F0F0F0"/>
<circle cx="57" cy="25" r="1" fill="#F0F0F0"/>
<circle cx="61" cy="25" r="1" fill="#F0F0F0"/>
<circle cx="65" cy="25" r="1" fill="#F0F0F0"/>
<circle cx="69" cy="25" r="1" fill="#F0F0F0"/>
<circle cx="73" cy="25" r="1" fill="#F0F0F0"/>
<circle cx="77" cy="25" r="1" fill="#F0F0F0"/>
<circle cx="81" cy="25" r="1" fill="#F0F0F0"/>
<circle cx="85" cy="25" r="1" fill="#F0F0F0"/>
<circle cx="89" cy="25" r="1" fill="#F0F0F0"/>
<circle cx="93" cy="25" r="1" fill="#F0F0F0"/>
<circle cx="97" cy="25" r="1" fill="#F0F0F0"/>
<circle cx="1" cy="29" r="1" fill="#F0F0F0"/>
<circle cx="5" cy="29" r="1" fill="#F0F0F0"/>
<circle cx="9" cy="29" r="1" fill="#F0F0F0"/>
<circle cx="13" cy="29" r="1" fill="#F0F0F0"/>
<circle cx="17" cy="29" r="1" fill="#F0F0F0"/>
<circle cx="21" cy="29" r="1" fill="#F0F0F0"/>
<circle cx="25" cy="29" r="1" fill="#F0F0F0"/>
<circle cx="29" cy="29" r="1" fill="#F0F0F0"/>
<circle cx="33" cy="29" r="1" fill="#F0F0F0"/>
<circle cx="37" cy="29" r="1" fill="#F0F0F0"/>
<circle cx="41" cy="29" r="1" fill="#F0F0F0"/>
<circle cx="45" cy="29" r="1" fill="#F0F0F0"/>
<circle cx="49" cy="29" r="1" fill="#F0F0F0"/>
<circle cx="53" cy="29" r="1" fill="#F0F0F0"/>
<circle cx="57" cy="29" r="1" fill="#F0F0F0"/>
<circle cx="61" cy="29" r="1" fill="#F0F0F0"/>
<circle cx="65" cy="29" r="1" fill="#F0F0F0"/>
<circle cx="69" cy="29" r="1" fill="#F0F0F0"/>
<circle cx="73" cy="29" r="1" fill="#F0F0F0"/>
<circle cx="77" cy="29" r="1" fill="#F0F0F0"/>
<circle cx="81" cy="29" r="1" fill="#F0F0F0"/>
<circle cx="85" cy="29" r="1" fill="#F0F0F0"/>
<circle cx="89" cy="29" r="1" fill="#F0F0F0"/>
<circle cx="93" cy="29" r="1" fill="#F0F0F0"/>
<circle cx="97" cy="29" r="1" fill="#F0F0F0"/>
<circle cx="1" cy="33" r="1" fill="#F0F0F0"/>
<circle cx="5" cy="33" r="1" fill="#F0F0F0"/>
<circle cx="9" cy="33" r="1" fill="#F0F0F0"/>
<circle cx="13" cy="33" r="1" fill="#F0F0F0"/>
<circle cx="17" cy="33" r="1" fill="#F0F0F0"/>
<circle cx="21" cy="33" r="1" fill="#F0F0F0"/>
<circle cx="25" cy="33" r="1" fill="#F0F0F0"/>
<circle cx="29" cy="33" r="1" fill="#F0F0F0"/>
<circle cx="33" cy="33" r="1" fill="#F0F0F0"/>
<circle cx="37" cy="33" r="1" fill="#F0F0F0"/>
<circle cx="41" cy="33" r="1" fill="#F0F0F0"/>
<circle cx="45" cy="33" r="1" fill="#F0F0F0"/>
<circle cx="49" cy="33" r="1" fill="#F0F0F0"/>
<circle cx="53" cy="33" r="1" fill="#F0F0F0"/>
<circle cx="57" cy="33" r="1" fill="#F0F0F0"/>
<circle cx="61" cy="33" r="1" fill="#F0F0F0"/>
<circle cx="65" cy="33" r="1" fill="#F0F0F0"/>
<circle cx="69" cy="33" r="1" fill="#F0F0F0"/>
<circle cx="73" cy="33" r="1" fill="#F0F0F0"/>
<circle cx="77" cy="33" r="1" fill="#F0F0F0"/>
<circle cx="81" cy="33" r="1" fill="#F0F0F0"/>
<circle cx="85" cy="33" r="1" fill="#F0F0F0"/>
<circle cx="89" cy="33" r="1" fill="#F0F0F0"/>
<circle cx="93" cy="33" r="1" fill="#F0F0F0"/>
<circle cx="97" cy="33" r="1" fill="#F0F0F0"/>
<circle cx="1" cy="37" r="1" fill="#F0F0F0"/>
<circle cx="5" cy="37" r="1" fill="#F0F0F0"/>
<circle cx="9" cy="37" r="1" fill="#F0F0F0"/>
<circle cx="13" cy="37" r="1" fill="#F0F0F0"/>
<circle cx="17" cy="37" r="1" fill="#F0F0F0"/>
<circle cx="21" cy="37" r="1" fill="#F0F0F0"/>
<circle cx="25" cy="37" r="1" fill="#F0F0F0"/>
<circle cx="29" cy="37" r="1" fill="#F0F0F0"/>
<circle cx="33" cy="37" r="1" fill="#F0F0F0"/>
<circle cx="37" cy="37" r="1" fill="#F0F0F0"/>
<circle cx="41" cy="37" r="1" fill="#F0F0F0"/>
<circle cx="45" cy="37" r="1" fill="#F0F0F0"/>
<circle cx="49" cy="37" r="1" fill="#F0F0F0"/>
<circle cx="53" cy="37" r="1" fill="#F0F0F0"/>
<circle cx="57" cy="37" r="1" fill="#F0F0F0"/>
<circle cx="61" cy="37" r="1" fill="#F0F0F0"/>
<circle cx="65" cy="37" r="1" fill="#F0F0F0"/>
<circle cx="69" cy="37" r="1" fill="#F0F0F0"/>
<circle cx="73" cy="37" r="1" fill="#F0F0F0"/>
<circle cx="77" cy="37" r="1" fill="#F0F0F0"/>
<circle cx="81" cy="37" r="1" fill="#F0F0F0"/>
<circle cx="85" cy="37" r="1" fill="#F0F0F0"/>
<circle cx="89" cy="37" r="1" fill="#F0F0F0"/>
<circle cx="93" cy="37" r="1" fill="#F0F0F0"/>
<circle cx="97" cy="37" r="1" fill="#F0F0F0"/>
<circle cx="1" cy="41" r="1" fill="#F0F0F0"/>
<circle cx="5" cy="41" r="1" fill="#F0F0F0"/>
<circle cx="9" cy="41" r="1" fill="#F0F0F0"/>
<circle cx="13" cy="41" r="1" fill="#F0F0F0"/>
<circle cx="17" cy="41" r="1" fill="#F0F0F0"/>
<circle cx="21" cy="41" r="1" fill="#F0F0F0"/>
<circle cx="25" cy="41" r="1" fill="#F0F0F0"/>
<circle cx="29" cy="41" r="1" fill="#F0F0F0"/>
<circle cx="33" cy="41" r="1" fill="#F0F0F0"/>
<circle cx="37" cy="41" r="1" fill="#F0F0F0"/>
<circle cx="41" cy="41" r="1" fill="#F0F0F0"/>
<circle cx="45" cy="41" r="1" fill="#F0F0F0"/>
<circle cx="49" cy="41" r="1" fill="#F0F0F0"/>
<circle cx="53" cy="41" r="1" fill="#F0F0F0"/>
<circle cx="57" cy="41" r="1" fill="#F0F0F0"/>
<circle cx="61" cy="41" r="1" fill="#F0F0F0"/>
<circle cx="65" cy="41" r="1" fill="#F0F0F0"/>
<circle cx="69" cy="41" r="1" fill="#F0F0F0"/>
<circle cx="73" cy="41" r="1" fill="#F0F0F0"/>
<circle cx="77" cy="41" r="1" fill="#F0F0F0"/>
<circle cx="81" cy="41" r="1" fill="#F0F0F0"/>
<circle cx="85" cy="41" r="1" fill="#F0F0F0"/>
<circle cx="89" cy="41" r="1" fill="#F0F0F0"/>
<circle cx="93" cy="41" r="1" fill="#F0F0F0"/>
<circle cx="97" cy="41" r="1" fill="#F0F0F0"/>
<circle cx="1" cy="45" r="1" fill="#F0F0F0"/>
<circle cx="5" cy="45" r="1" fill="#F0F0F0"/>
<circle cx="9" cy="45" r="1" fill="#F0F0F0"/>
<circle cx="13" cy="45" r="1" fill="#F0F0F0"/>
<circle cx="17" cy="45" r="1" fill="#F0F0F0"/>
<circle cx="21" cy="45" r="1" fill="#F0F0F0"/>
<circle cx="25" cy="45" r="1" fill="#F0F0F0"/>
<circle cx="29" cy="45" r="1" fill="#F0F0F0"/>
<circle cx="33" cy="45" r="1" fill="#F0F0F0"/>
<circle cx="37" cy="45" r="1" fill="#F0F0F0"/>
<circle cx="41" cy="45" r="1" fill="#F0F0F0"/>
<circle cx="45" cy="45" r="1" fill="#F0F0F0"/>
<circle cx="49" cy="45" r="1" fill="#F0F0F0"/>
<circle cx="53" cy="45" r="1" fill="#F0F0F0"/>
<circle cx="57" cy="45" r="1" fill="#F0F0F0"/>
<circle cx="61" cy="45" r="1" fill="#F0F0F0"/>
<circle cx="65" cy="45" r="1" fill="#F0F0F0"/>
<circle cx="69" cy="45" r="1" fill="#F0F0F0"/>
<circle cx="73" cy="45" r="1" fill="#F0F0F0"/>
<circle cx="77" cy="45" r="1" fill="#F0F0F0"/>
<circle cx="81" cy="45" r="1" fill="#F0F0F0"/>
<circle cx="85" cy="45" r="1" fill="#F0F0F0"/>
<circle cx="89" cy="45" r="1" fill="#F0F0F0"/>
<circle cx="93" cy="45" r="1" fill="#F0F0F0"/>
<circle cx="97" cy="45" r="1" fill="#F0F0F0"/>
<circle cx="1" cy="49" r="1" fill="#F0F0F0"/>
<circle cx="5" cy="49" r="1" fill="#F0F0F0"/>
<circle cx="9" cy="49" r="1" fill="#F0F0F0"/>
<circle cx="13" cy="49" r="1" fill="#F0F0F0"/>
<circle cx="17" cy="49" r="1" fill="#F0F0F0"/>
<circle cx="21" cy="49" r="1" fill="#F0F0F0"/>
<circle cx="25" cy="49" r="1" fill="#F0F0F0"/>
<circle cx="29" cy="49" r="1" fill="#F0F0F0"/>
<circle cx="33" cy="49" r="1" fill="#F0F0F0"/>
<circle cx="37" cy="49" r="1" fill="#F0F0F0"/>
<circle cx="41" cy="49" r="1" fill="#F0F0F0"/>
<circle cx="45" cy="49" r="1" fill="#F0F0F0"/>
<circle cx="49" cy="49" r="1" fill="#F0F0F0"/>
<circle cx="53" cy="49" r="1" fill="#F0F0F0"/>
<circle cx="57" cy="49" r="1" fill="#F0F0F0"/>
<circle cx="61" cy="49" r="1" fill="#F0F0F0"/>
<circle cx="65" cy="49" r="1" fill="#F0F0F0"/>
<circle cx="69" cy="49" r="1" fill="#F0F0F0"/>
<circle cx="73" cy="49" r="1" fill="#F0F0F0"/>
<circle cx="77" cy="49" r="1" fill="#F0F0F0"/>
<circle cx="81" cy="49" r="1" fill="#F0F0F0"/>
<circle cx="85" cy="49" r="1" fill="#F0F0F0"/>
<circle cx="89" cy="49" r="1" fill="#F0F0F0"/>
<circle cx="93" cy="49" r="1" fill="#F0F0F0"/>
<circle cx="97" cy="49" r="1" fill="#F0F0F0"/>
<circle cx="1" cy="53" r="1" fill="#F0F0F0"/>
<circle cx="5" cy="53" r="1" fill="#F0F0F0"/>
<circle cx="9" cy="53" r="1" fill="#F0F0F0"/>
<circle cx="13" cy="53" r="1" fill="#F0F0F0"/>
<circle cx="17" cy="53" r="1" fill="#F0F0F0"/>
<circle cx="21" cy="53" r="1" fill="#F0F0F0"/>
<circle cx="25" cy="53" r="1" fill="#F0F0F0"/>
<circle cx="29" cy="53" r="1" fill="#F0F0F0"/>
<circle cx="33" cy="53" r="1" fill="#F0F0F0"/>
<circle cx="37" cy="53" r="1" fill="#F0F0F0"/>
<circle cx="41" cy="53" r="1" fill="#F0F0F0"/>
<circle cx="45" cy="53" r="1" fill="#F0F0F0"/>
<circle cx="49" cy="53" r="1" fill="#F0F0F0"/>
<circle cx="53" cy="53" r="1" fill="#F0F0F0"/>
<circle cx="57" cy="53" r="1" fill="#F0F0F0"/>
<circle cx="61" cy="53" r="1" fill="#F0F0F0"/>
<circle cx="65" cy="53" r="1" fill="#F0F0F0"/>
<circle cx="69" cy="53" r="1" fill="#F0F0F0"/>
<circle cx="73" cy="53" r="1" fill="#F0F0F0"/>
<circle cx="77" cy="53" r="1" fill="#F0F0F0"/>
<circle cx="81" cy="53" r="1" fill="#F0F0F0"/>
<circle cx="85" cy="53" r="1" fill="#F0F0F0"/>
<circle cx="89" cy="53" r="1" fill="#F0F0F0"/>
<circle cx="93" cy="53" r="1" fill="#F0F0F0"/>
<circle cx="97" cy="53" r="1" fill="#F0F0F0"/>
<circle cx="1" cy="57" r="1" fill="#F0F0F0"/>
<circle cx="5" cy="57" r="1" fill="#F0F0F0"/>
<circle cx="9" cy="57" r="1" fill="#F0F0F0"/>
<circle cx="13" cy="57" r="1" fill="#F0F0F0"/>
<circle cx="17" cy="57" r="1" fill="#F0F0F0"/>
<circle cx="21" cy="57" r="1" fill="#F0F0F0"/>
<circle cx="25" cy="57" r="1" fill="#F0F0F0"/>
<circle cx="29" cy="57" r="1" fill="#F0F0F0"/>
<circle cx="33" cy="57" r="1" fill="#F0F0F0"/>
<circle cx="37" cy="57" r="1" fill="#F0F0F0"/>
<circle cx="41" cy="57" r="1" fill="#F0F0F0"/>
<circle cx="45" cy="57" r="1" fill="#F0F0F0"/>
<circle cx="49" cy="57" r="1" fill="#F0F0F0"/>
<circle cx="53" cy="57" r="1" fill="#F0F0F0"/>
<circle cx="57" cy="57" r="1" fill="#F0F0F0"/>
<circle cx="61" cy="57" r="1" fill="#F0F0F0"/>
<circle cx="65" cy="57" r="1" fill="#F0F0F0"/>
<circle cx="69" cy="57" r="1" fill="#F0F0F0"/>
<circle cx="73" cy="57" r="1" fill="#F0F0F0"/>
<circle cx="77" cy="57" r="1" fill="#F0F0F0"/>
<circle cx="81" cy="57" r="1" fill="#F0F0F0"/>
<circle cx="85" cy="57" r="1" fill="#F0F0F0"/>
<circle cx="89" cy="57" r="1" fill="#F0F0F0"/>
<circle cx="93" cy="57" r="1" fill="#F0F0F0"/>
<circle cx="97" cy="57" r="1" fill="#F0F0F0"/>
<circle cx="1" cy="61" r="1" fill="#F0F0F0"/>
<circle cx="5" cy="61" r="1" fill="#F0F0F0"/>
<circle cx="9" cy="61" r="1" fill="#F0F0F0"/>
<circle cx="13" cy="61" r="1" fill="#F0F0F0"/>
<circle cx="17" cy="61" r="1" fill="#F0F0F0"/>
<circle cx="21" cy="61" r="1" fill="#F0F0F0"/>
<circle cx="25" cy="61" r="1" fill="#F0F0F0"/>
<circle cx="29" cy="61" r="1" fill="#F0F0F0"/>
<circle cx="33" cy="61" r="1" fill="#F0F0F0"/>
<circle cx="37" cy="61" r="1" fill="#F0F0F0"/>
<circle cx="41" cy="61" r="1" fill="#F0F0F0"/>
<circle cx="45" cy="61" r="1" fill="#F0F0F0"/>
<circle cx="49" cy="61" r="1" fill="#F0F0F0"/>
<circle cx="53" cy="61" r="1" fill="#F0F0F0"/>
<circle cx="57" cy="61" r="1" fill="#F0F0F0"/>
<circle cx="61" cy="61" r="1" fill="#F0F0F0"/>
<circle cx="65" cy="61" r="1" fill="#F0F0F0"/>
<circle cx="69" cy="61" r="1" fill="#F0F0F0"/>
<circle cx="73" cy="61" r="1" fill="#F0F0F0"/>
<circle cx="77" cy="61" r="1" fill="#F0F0F0"/>
<circle cx="81" cy="61" r="1" fill="#F0F0F0"/>
<circle cx="85" cy="61" r="1" fill="#F0F0F0"/>
<circle cx="89" cy="61" r="1" fill="#F0F0F0"/>
<circle cx="93" cy="61" r="1" fill="#F0F0F0"/>
<circle cx="97" cy="61" r="1" fill="#F0F0F0"/>
<circle cx="1" cy="65" r="1" fill="#F0F0F0"/>
<circle cx="5" cy="65" r="1" fill="#F0F0F0"/>
<circle cx="9" cy="65" r="1" fill="#F0F0F0"/>
<circle cx="13" cy="65" r="1" fill="#F0F0F0"/>
<circle cx="17" cy="65" r="1" fill="#F0F0F0"/>
<circle cx="21" cy="65" r="1" fill="#F0F0F0"/>
<circle cx="25" cy="65" r="1" fill="#F0F0F0"/>
<circle cx="29" cy="65" r="1" fill="#F0F0F0"/>
<circle cx="33" cy="65" r="1" fill="#F0F0F0"/>
<circle cx="37" cy="65" r="1" fill="#F0F0F0"/>
<circle cx="41" cy="65" r="1" fill="#F0F0F0"/>
<circle cx="45" cy="65" r="1" fill="#F0F0F0"/>
<circle cx="49" cy="65" r="1" fill="#F0F0F0"/>
<circle cx="53" cy="65" r="1" fill="#F0F0F0"/>
<circle cx="57" cy="65" r="1" fill="#F0F0F0"/>
<circle cx="61" cy="65" r="1" fill="#F0F0F0"/>
<circle cx="65" cy="65" r="1" fill="#F0F0F0"/>
<circle cx="69" cy="65" r="1" fill="#F0F0F0"/>
<circle cx="73" cy="65" r="1" fill="#F0F0F0"/>
<circle cx="77" cy="65" r="1" fill="#F0F0F0"/>
<circle cx="81" cy="65" r="1" fill="#F0F0F0"/>
<circle cx="85" cy="65" r="1" fill="#F0F0F0"/>
<circle cx="89" cy="65" r="1" fill="#F0F0F0"/>
<circle cx="93" cy="65" r="1" fill="#F0F0F0"/>
<circle cx="97" cy="65" r="1" fill="#F0F0F0"/>
<circle cx="1" cy="69" r="1" fill="#F0F0F0"/>
<circle cx="5" cy="69" r="1" fill="#F0F0F0"/>
<circle cx="9" cy="69" r="1" fill="#F0F0F0"/>
<circle cx="13" cy="69" r="1" fill="#F0F0F0"/>
<circle cx="17" cy="69" r="1" fill="#F0F0F0"/>
<circle cx="21" cy="69" r="1" fill="#F0F0F0"/>
<circle cx="25" cy="69" r="1" fill="#F0F0F0"/>
<circle cx="29" cy="69" r="1" fill="#F0F0F0"/>
<circle cx="33" cy="69" r="1" fill="#F0F0F0"/>
<circle cx="37" cy="69" r="1" fill="#F0F0F0"/>
<circle cx="41" cy="69" r="1" fill="#F0F0F0"/>
<circle cx="45" cy="69" r="1" fill="#F0F0F0"/>
<circle cx="49" cy="69" r="1" fill="#F0F0F0"/>
<circle cx="53" cy="69" r="1" fill="#F0F0F0"/>
<circle cx="57" cy="69" r="1" fill="#F0F0F0"/>
<circle cx="61" cy="69" r="1" fill="#F0F0F0"/>
<circle cx="65" cy="69" r="1" fill="#F0F0F0"/>
<circle cx="69" cy="69" r="1" fill="#F0F0F0"/>
<circle cx="73" cy="69" r="1" fill="#F0F0F0"/>
<circle cx="77" cy="69" r="1" fill="#F0F0F0"/>
<circle cx="81" cy="69" r="1" fill="#F0F0F0"/>
<circle cx="85" cy="69" r="1" fill="#F0F0F0"/>
<circle cx="89" cy="69" r="1" fill="#F0F0F0"/>
<circle cx="93" cy="69" r="1" fill="#F0F0F0"/>
<circle cx="97" cy="69" r="1" fill="#F0F0F0"/>
<circle cx="1" cy="73" r="1" fill="#F0F0F0"/>
<circle cx="5" cy="73" r="1" fill="#F0F0F0"/>
<circle cx="9" cy="73" r="1" fill="#F0F0F0"/>
<circle cx="13" cy="73" r="1" fill="#F0F0F0"/>
<circle cx="17" cy="73" r="1" fill="#F0F0F0"/>
<circle cx="21" cy="73" r="1" fill="#F0F0F0"/>
<circle cx="25" cy="73" r="1" fill="#F0F0F0"/>
<circle cx="29" cy="73" r="1" fill="#F0F0F0"/>
<circle cx="33" cy="73" r="1" fill="#F0F0F0"/>
<circle cx="37" cy="73" r="1" fill="#F0F0F0"/>
<circle cx="41" cy="73" r="1" fill="#F0F0F0"/>
<circle cx="45" cy="73" r="1" fill="#F0F0F0"/>
<circle cx="49" cy="73" r="1" fill="#F0F0F0"/>
<circle cx="53" cy="73" r="1" fill="#F0F0F0"/>
<circle cx="57" cy="73" r="1" fill="#F0F0F0"/>
<circle cx="61" cy="73" r="1" fill="#F0F0F0"/>
<circle cx="65" cy="73" r="1" fill="#F0F0F0"/>
<circle cx="69" cy="73" r="1" fill="#F0F0F0"/>
<circle cx="73" cy="73" r="1" fill="#F0F0F0"/>
<circle cx="77" cy="73" r="1" fill="#F0F0F0"/>
<circle cx="81" cy="73" r="1" fill="#F0F0F0"/>
<circle cx="85" cy="73" r="1" fill="#F0F0F0"/>
<circle cx="89" cy="73" r="1" fill="#F0F0F0"/>
<circle cx="93" cy="73" r="1" fill="#F0F0F0"/>
<circle cx="97" cy="73" r="1" fill="#F0F0F0"/>
<circle cx="1" cy="77" r="1" fill="#F0F0F0"/>
<circle cx="5" cy="77" r="1" fill="#F0F0F0"/>
<circle cx="9" cy="77" r="1" fill="#F0F0F0"/>
<circle cx="13" cy="77" r="1" fill="#F0F0F0"/>
<circle cx="17" cy="77" r="1" fill="#F0F0F0"/>
<circle cx="21" cy="77" r="1" fill="#F0F0F0"/>
<circle cx="25" cy="77" r="1" fill="#F0F0F0"/>
<circle cx="29" cy="77" r="1" fill="#F0F0F0"/>
<circle cx="33" cy="77" r="1" fill="#F0F0F0"/>
<circle cx="37" cy="77" r="1" fill="#F0F0F0"/>
<circle cx="41" cy="77" r="1" fill="#F0F0F0"/>
<circle cx="45" cy="77" r="1" fill="#F0F0F0"/>
<circle cx="49" cy="77" r="1" fill="#F0F0F0"/>
<circle cx="53" cy="77" r="1" fill="#F0F0F0"/>
<circle cx="57" cy="77" r="1" fill="#F0F0F0"/>
<circle cx="61" cy="77" r="1" fill="#F0F0F0"/>
<circle cx="65" cy="77" r="1" fill="#F0F0F0"/>
<circle cx="69" cy="77" r="1" fill="#F0F0F0"/>
<circle cx="73" cy="77" r="1" fill="#F0F0F0"/>
<circle cx="77" cy="77" r="1" fill="#F0F0F0"/>
<circle cx="81" cy="77" r="1" fill="#F0F0F0"/>
<circle cx="85" cy="77" r="1" fill="#F0F0F0"/>
<circle cx="89" cy="77" r="1" fill="#F0F0F0"/>
<circle cx="93" cy="77" r="1" fill="#F0F0F0"/>
<circle cx="97" cy="77" r="1" fill="#F0F0F0"/>
<circle cx="1" cy="81" r="1" fill="#F0F0F0"/>
<circle cx="5" cy="81" r="1" fill="#F0F0F0"/>
<circle cx="9" cy="81" r="1" fill="#F0F0F0"/>
<circle cx="13" cy="81" r="1" fill="#F0F0F0"/>
<circle cx="17" cy="81" r="1" fill="#F0F0F0"/>
<circle cx="21" cy="81" r="1" fill="#F0F0F0"/>
<circle cx="25" cy="81" r="1" fill="#F0F0F0"/>
<circle cx="29" cy="81" r="1" fill="#F0F0F0"/>
<circle cx="33" cy="81" r="1" fill="#F0F0F0"/>
<circle cx="37" cy="81" r="1" fill="#F0F0F0"/>
<circle cx="41" cy="81" r="1" fill="#F0F0F0"/>
<circle cx="45" cy="81" r="1" fill="#F0F0F0"/>
<circle cx="49" cy="81" r="1" fill="#F0F0F0"/>
<circle cx="53" cy="81" r="1" fill="#F0F0F0"/>
<circle cx="57" cy="81" r="1" fill="#F0F0F0"/>
<circle cx="61" cy="81" r="1" fill="#F0F0F0"/>
<circle cx="65" cy="81" r="1" fill="#F0F0F0"/>
<circle cx="69" cy="81" r="1" fill="#F0F0F0"/>
<circle cx="73" cy="81" r="1" fill="#F0F0F0"/>
<circle cx="77" cy="81" r="1" fill="#F0F0F0"/>
<circle cx="81" cy="81" r="1" fill="#F0F0F0"/>
<circle cx="85" cy="81" r="1" fill="#F0F0F0"/>
<circle cx="89" cy="81" r="1" fill="#F0F0F0"/>
<circle cx="93" cy="81" r="1" fill="#F0F0F0"/>
<circle cx="97" cy="81" r="1" fill="#F0F0F0"/>
<circle cx="1" cy="85" r="1" fill="#F0F0F0"/>
<circle cx="5" cy="85" r="1" fill="#F0F0F0"/>
<circle cx="9" cy="85" r="1" fill="#F0F0F0"/>
<circle cx="13" cy="85" r="1" fill="#F0F0F0"/>
<circle cx="17" cy="85" r="1" fill="#F0F0F0"/>
<circle cx="21" cy="85" r="1" fill="#F0F0F0"/>
<circle cx="25" cy="85" r="1" fill="#F0F0F0"/>
<circle cx="29" cy="85" r="1" fill="#F0F0F0"/>
<circle cx="33" cy="85" r="1" fill="#F0F0F0"/>
<circle cx="37" cy="85" r="1" fill="#F0F0F0"/>
<circle cx="41" cy="85" r="1" fill="#F0F0F0"/>
<circle cx="45" cy="85" r="1" fill="#F0F0F0"/>
<circle cx="49" cy="85" r="1" fill="#F0F0F0"/>
<circle cx="53" cy="85" r="1" fill="#F0F0F0"/>
<circle cx="57" cy="85" r="1" fill="#F0F0F0"/>
<circle cx="61" cy="85" r="1" fill="#F0F0F0"/>
<circle cx="65" cy="85" r="1" fill="#F0F0F0"/>
<circle cx="69" cy="85" r="1" fill="#F0F0F0"/>
<circle cx="73" cy="85" r="1" fill="#F0F0F0"/>
<circle cx="77" cy="85" r="1" fill="#F0F0F0"/>
<circle cx="81" cy="85" r="1" fill="#F0F0F0"/>
<circle cx="85" cy="85" r="1" fill="#F0F0F0"/>
<circle cx="89" cy="85" r="1" fill="#F0F0F0"/>
<circle cx="93" cy="85" r="1" fill="#F0F0F0"/>
<circle cx="97" cy="85" r="1" fill="#F0F0F0"/>
<circle cx="1" cy="89" r="1" fill="#F0F0F0"/>
<circle cx="5" cy="89" r="1" fill="#F0F0F0"/>
<circle cx="9" cy="89" r="1" fill="#F0F0F0"/>
<circle cx="13" cy="89" r="1" fill="#F0F0F0"/>
<circle cx="17" cy="89" r="1" fill="#F0F0F0"/>
<circle cx="21" cy="89" r="1" fill="#F0F0F0"/>
<circle cx="25" cy="89" r="1" fill="#F0F0F0"/>
<circle cx="29" cy="89" r="1" fill="#F0F0F0"/>
<circle cx="33" cy="89" r="1" fill="#F0F0F0"/>
<circle cx="37" cy="89" r="1" fill="#F0F0F0"/>
<circle cx="41" cy="89" r="1" fill="#F0F0F0"/>
<circle cx="45" cy="89" r="1" fill="#F0F0F0"/>
<circle cx="49" cy="89" r="1" fill="#F0F0F0"/>
<circle cx="53" cy="89" r="1" fill="#F0F0F0"/>
<circle cx="57" cy="89" r="1" fill="#F0F0F0"/>
<circle cx="61" cy="89" r="1" fill="#F0F0F0"/>
<circle cx="65" cy="89" r="1" fill="#F0F0F0"/>
<circle cx="69" cy="89" r="1" fill="#F0F0F0"/>
<circle cx="73" cy="89" r="1" fill="#F0F0F0"/>
<circle cx="77" cy="89" r="1" fill="#F0F0F0"/>
<circle cx="81" cy="89" r="1" fill="#F0F0F0"/>
<circle cx="85" cy="89" r="1" fill="#F0F0F0"/>
<circle cx="89" cy="89" r="1" fill="#F0F0F0"/>
<circle cx="93" cy="89" r="1" fill="#F0F0F0"/>
<circle cx="97" cy="89" r="1" fill="#F0F0F0"/>
<circle cx="1" cy="93" r="1" fill="#F0F0F0"/>
<circle cx="5" cy="93" r="1" fill="#F0F0F0"/>
<circle cx="9" cy="93" r="1" fill="#F0F0F0"/>
<circle cx="13" cy="93" r="1" fill="#F0F0F0"/>
<circle cx="17" cy="93" r="1" fill="#F0F0F0"/>
<circle cx="21" cy="93" r="1" fill="#F0F0F0"/>
<circle cx="25" cy="93" r="1" fill="#F0F0F0"/>
<circle cx="29" cy="93" r="1" fill="#F0F0F0"/>
<circle cx="33" cy="93" r="1" fill="#F0F0F0"/>
<circle cx="37" cy="93" r="1" fill="#F0F0F0"/>
<circle cx="41" cy="93" r="1" fill="#F0F0F0"/>
<circle cx="45" cy="93" r="1" fill="#F0F0F0"/>
<circle cx="49" cy="93" r="1" fill="#F0F0F0"/>
<circle cx="53" cy="93" r="1" fill="#F0F0F0"/>
<circle cx="57" cy="93" r="1" fill="#F0F0F0"/>
<circle cx="61" cy="93" r="1" fill="#F0F0F0"/>
<circle cx="65" cy="93" r="1" fill="#F0F0F0"/>
<circle cx="69" cy="93" r="1" fill="#F0F0F0"/>
<circle cx="73" cy="93" r="1" fill="#F0F0F0"/>
<circle cx="77" cy="93" r="1" fill="#F0F0F0"/>
<circle cx="81" cy="93" r="1" fill="#F0F0F0"/>
<circle cx="85" cy="93" r="1" fill="#F0F0F0"/>
<circle cx="89" cy="93" r="1" fill="#F0F0F0"/>
<circle cx="93" cy="93" r="1" fill="#F0F0F0"/>
<circle cx="97" cy="93" r="1" fill="#F0F0F0"/>
<circle cx="1" cy="97" r="1" fill="#F0F0F0"/>
<circle cx="5" cy="97" r="1" fill="#F0F0F0"/>
<circle cx="9" cy="97" r="1" fill="#F0F0F0"/>
<circle cx="13" cy="97" r="1" fill="#F0F0F0"/>
<circle cx="17" cy="97" r="1" fill="#F0F0F0"/>
<circle cx="21" cy="97" r="1" fill="#F0F0F0"/>
<circle cx="25" cy="97" r="1" fill="#F0F0F0"/>
<circle cx="29" cy="97" r="1" fill="#F0F0F0"/>
<circle cx="33" cy="97" r="1" fill="#F0F0F0"/>
<circle cx="37" cy="97" r="1" fill="#F0F0F0"/>
<circle cx="41" cy="97" r="1" fill="#F0F0F0"/>
<circle cx="45" cy="97" r="1" fill="#F0F0F0"/>
<circle cx="49" cy="97" r="1" fill="#F0F0F0"/>
<circle cx="53" cy="97" r="1" fill="#F0F0F0"/>
<circle cx="57" cy="97" r="1" fill="#F0F0F0"/>
<circle cx="61" cy="97" r="1" fill="#F0F0F0"/>
<circle cx="65" cy="97" r="1" fill="#F0F0F0"/>
<circle cx="69" cy="97" r="1" fill="#F0F0F0"/>
<circle cx="73" cy="97" r="1" fill="#F0F0F0"/>
<circle cx="77" cy="97" r="1" fill="#F0F0F0"/>
<circle cx="81" cy="97" r="1" fill="#F0F0F0"/>
<circle cx="85" cy="97" r="1" fill="#F0F0F0"/>
<circle cx="89" cy="97" r="1" fill="#F0F0F0"/>
<circle cx="93" cy="97" r="1" fill="#F0F0F0"/>
<circle cx="97" cy="97" r="1" fill="#F0F0F0"/>
</svg>
